<svg xmlns="http://www.w3.org/2000/svg" viewBox="272 278 213 134" width="213" height="134">
  <path stroke-linecap="butt" transform="matrix(0,-0.75,0.75,0,276.10874,409.977072)"   fill="none" d="M 0 4 L 60.76 4"  stroke="#E8B84B" stroke-width="8"/>
  <path stroke-linecap="butt" transform="matrix(0.703129,-0.260977,0.260977,0.703129,276.14199,364.353137)" fill="none" d="M 0 4 L 33.86 4" stroke="#E8B84B" stroke-width="8"/>
  <path stroke-linecap="butt" transform="matrix(0,-0.75,0.75,0,294.988903,409.97844)"    fill="none" d="M 0 4 L 68.87 4"  stroke="#E8B84B" stroke-width="8"/>
  <path stroke-linecap="butt" transform="matrix(-0.725773,-0.189086,0.189086,-0.725773,321.917125,367.313088)" fill="none" d="M 0 4 L 32.15 4" stroke="#E8B84B" stroke-width="8"/>
  <path stroke-linecap="butt" transform="matrix(0,-0.75,0.75,0,318.030455,409.979736)"   fill="none" d="M 0 4 L 96.82 4"  stroke="#E8B84B" stroke-width="8"/>
  <path stroke-linecap="butt" transform="matrix(0.702181,-0.263519,0.263519,0.702181,318.38237,337.31684)"   fill="none" d="M 0 4 L 67.95 4"  stroke="#E8B84B" stroke-width="8"/>
  <path fill="#E8B84B" transform="translate(358,318)" d="M 0.74 4.38 L 10.76 0.27 L 10.59 8.89 Z"/>
  <path stroke-linecap="butt" transform="matrix(0,-0.75,0.75,0,362.499359,409.976424)"   fill="none" d="M 0 4 L 118.62 4" stroke="#E8B84B" stroke-width="8"/>
  <path stroke-linecap="butt" transform="matrix(0,-0.75,0.75,0,384.250237,409.977312)"   fill="none" d="M 0 4 L 162.42 4" stroke="#E8B84B" stroke-width="8"/>
  <path stroke-linecap="butt" transform="matrix(0.75,0,0,0.75,384.986643,288.169254)"    fill="none" d="M 0 4 L 49 4"     stroke="#E8B84B" stroke-width="8"/>
  <path stroke-linecap="butt" transform="matrix(0,-0.75,0.75,0,417.232422,336.021186)"   fill="none" d="M 0 4 L 63.81 4"  stroke="#E8B84B" stroke-width="8"/>
  <path stroke-linecap="butt" transform="matrix(0,-0.75,0.75,0,408.982831,409.976808)"   fill="none" d="M 0 4 L 106.21 4" stroke="#E8B84B" stroke-width="8"/>
  <path stroke-linecap="butt" transform="matrix(0.75,0,0,0.75,411.986743,330.32063)"     fill="none" d="M 0 4.5 L 46.61 4.5" stroke="#E8B84B" stroke-width="9"/>
  <path stroke-linecap="butt" transform="matrix(0,-0.75,0.75,0,440.939981,356.680198)"   fill="none" d="M 0 4 L 33 4"     stroke="#E8B84B" stroke-width="8"/>
  <path stroke-linecap="butt" transform="matrix(0.736191,0.143259,-0.143259,0.736191,432.447342,350.53225)" fill="none" d="M 0 4 L 63.28 4"  stroke="#E8B84B" stroke-width="8"/>
  <path fill="#E8B84B" transform="translate(430,350)" d="M 21.125 4.285 L 0.73 8.332 L 0.73 0.238 Z"/>
  <path stroke-linecap="butt" transform="matrix(0,-0.75,0.75,0,430.73403,409.978008)"    fill="none" d="M 0 4 L 77.54 4"  stroke="#E8B84B" stroke-width="8"/>
  <path stroke-linecap="butt" transform="matrix(0,-0.75,0.75,0,473.189692,409.978536)"   fill="none" d="M 0 4 L 67.05 4"  stroke="#E8B84B" stroke-width="8"/>
</svg>
